# xmcd CD database file
#
# Track frame offsets:
#	150
#	2872
#	16562
#	33695
#	44050
#	59072
#	81105
#	95547
#	109972
#	124810
#	140882
#	156005
#	168040
#	176950
#	183002
#	188785
#	195742
#
# Disc length: 2841 seconds
#
# Revision: 3
# Processed by: cddbd v1.5.2PL0 Copyright (c) Steve Scherf et al.
# Submitted via: CDex 1.51
#
DISCID=ec0b1711
DTITLE=Los Paraguayos - Musica Latino Americana [CD2)
DYEAR=1900
DGENRE=Latin
TTITLE0=Ansage
TTITLE1=Cielo Americano
TTITLE2=Ende que te vi
TTITLE3=Bajo el Cielo del Paraguay
TTITLE4=Las Golondrinas
TTITLE5=Pajero Campana
TTITLE6=El Colorado
TTITLE7=Zamba de mi Esperanza
TTITLE8=Galopera
TTITLE9=Brasilerino
TTITLE10=Recuerdo de Ypacarai
TTITLE11=Besame Mucho
TTITLE12=Cucurru-Cu-Cu-Paloma
TTITLE13=Cielito Lindo
TTITLE14=La Cucaracha
TTITLE15=Guantanamera
TTITLE16=Ave Maria no Morro
EXTD=
EXTT0=
EXTT1=
EXTT2=
EXTT3=
EXTT4=
EXTT5=
EXTT6=
EXTT7=
EXTT8=
EXTT9=
EXTT10=
EXTT11=
EXTT12=
EXTT13=
EXTT14=
EXTT15=
EXTT16=
PLAYORDER=
